<?xml version="1.0" encoding="UTF-8" standalone="no"?>
<svg
   xmlns:dc="http://purl.org/dc/elements/1.1/"
   xmlns:cc="http://creativecommons.org/ns#"
   xmlns:rdf="http://www.w3.org/1999/02/22-rdf-syntax-ns#"
   xmlns:svg="http://www.w3.org/2000/svg"
   xmlns="http://www.w3.org/2000/svg"
   width="300.26459mm"
   height="300.26459mm"
   viewBox="0 0 300.26459 300.26459"
   version="1.1"
   id="svg8">
  <defs
     id="defs2" />
  <metadata
     id="metadata5">
    <rdf:RDF>
      <cc:Work
         rdf:about="">
        <dc:format>image/svg+xml</dc:format>
        <dc:type
           rdf:resource="http://purl.org/dc/dcmitype/StillImage" />
        <dc:title></dc:title>
      </cc:Work>
    </rdf:RDF>
  </metadata>
  <g
     id="layer1"
     transform="translate(-48.861986,83.608007)">
    <path
       style="fill:#d8c78f;stroke-width:0.175328;fill-opacity:1"
       d="m 120.00852,106.70664 c 1.10998,-2.14558 2.9992,-5.78594 4.19827,-8.089706 l 2.18011,-4.188656 -0.57462,-0.983522 c -1.16431,-1.992823 -2.1581,-4.873818 -2.75767,-7.994508 -0.35873,-1.867149 -0.37323,-2.49664 -0.44026,-19.112889 -0.0478,-11.847959 -0.008,-17.780887 0.12618,-19.110754 1.44017,-14.207708 9.796,-21.211126 24.7256,-20.723682 4.64868,0.151775 7.74681,0.79434 10.90518,2.261788 0.85156,0.395646 1.59004,0.677606 1.64108,0.626575 0.051,-0.05102 0.90145,-1.621243 1.88983,-3.48936 l 1.79704,-3.396576 5.3837,-0.04638 c 2.96103,-0.02551 5.38368,-0.02273 5.38368,0.006 0,0.02882 -1.6937,3.297999 -3.76378,7.264771 l -3.7638,7.212308 0.69393,1.660758 c 0.82454,1.973372 1.44116,4.198033 1.87242,6.755439 0.28891,1.71324 0.31505,3.352051 0.31505,19.751709 v 17.883461 l -0.41106,2.275949 c -1.79341,9.929845 -7.20492,15.777645 -16.29974,17.613835 -6.18602,1.24891 -13.69421,0.70302 -18.05738,-1.31289 -0.72453,-0.33475 -1.33301,-0.58827 -1.35219,-0.56337 -0.0192,0.0249 -1.13097,2.19363 -2.47064,4.81941 l -2.43575,4.77415 -5.40166,0.003 -5.40167,0.003 z m 29.51199,-16.191306 c 2.45464,-0.639351 3.94032,-1.744233 4.86097,-3.615028 1.13197,-2.300207 1.14973,-2.559134 1.14973,-16.75622 0,-7.265155 -0.0657,-12.659415 -0.15309,-12.564363 -0.0842,0.09161 -3.72074,7.096758 -8.08119,15.566995 l -7.92808,15.400431 0.41058,0.440283 c 0.78777,0.844736 2.72205,1.584804 4.88145,1.867673 1.00797,0.132034 3.79688,-0.06295 4.85963,-0.339771 z m -3.9849,-31.687874 8.4324,-16.440963 -0.5691,-0.718552 c -0.74049,-0.934943 -1.86672,-1.638652 -3.39053,-2.118528 -1.64911,-0.519331 -5.56987,-0.553306 -7.18845,-0.06229 -3.26616,0.990845 -4.84836,2.698856 -5.62642,6.073856 -0.27022,1.172141 -0.31094,2.835424 -0.37492,15.314584 -0.0648,12.642484 -0.0348,14.712195 0.21037,14.467105 0.0408,-0.04082 3.86884,-7.472693 8.50665,-16.515219 z m -56.918,44.60029 c -3.286329,-0.3798 -5.870456,-1.14641 -8.652782,-2.56692 -4.623529,-2.360549 -7.669264,-5.622559 -10.256926,-10.985285 -1.015617,-2.104785 -2.418656,-5.91656 -2.569843,-6.981749 -0.05938,-0.418362 -0.0078,-0.432755 6.690288,-1.865711 3.712572,-0.794254 6.87942,-1.446203 7.037441,-1.448781 0.195725,-0.0033 0.324552,0.204907 0.404136,0.652803 0.466974,2.628152 1.931418,5.885563 3.502042,7.7897 1.114637,1.351324 3.067198,2.724801 4.576734,3.219382 1.443266,0.472859 4.663928,0.483335 6.044998,0.01968 1.230761,-0.413212 3.165211,-1.694188 3.825291,-2.533073 1.586101,-2.015731 2.277571,-5.090704 1.727761,-7.683363 -0.89751,-4.232226 -4.457081,-7.346311 -14.531995,-12.713291 -5.712338,-3.043008 -8.879936,-5.201163 -11.53901,-7.86179 -4.158256,-4.160693 -5.78457,-7.913525 -5.776799,-13.330377 0.0085,-5.914308 1.793659,-10.936143 5.156861,-14.506646 2.242209,-2.380417 4.630367,-3.849634 7.988287,-4.914484 2.962362,-0.939409 4.878501,-1.180941 9.292386,-1.171299 3.362175,0.0074 4.192809,0.06381 5.623329,0.38218 7.285421,1.621496 12.506391,5.708738 15.605161,12.216496 0.78991,1.658889 1.54565,3.717348 1.80957,4.928818 l 0.11531,0.529298 -6.27301,1.813533 c -3.45016,0.997445 -6.33212,1.824375 -6.40436,1.837635 -0.0722,0.01326 -0.46838,-0.808773 -0.88032,-1.826734 -1.750581,-4.325913 -3.841001,-6.716237 -6.712228,-7.675188 -3.155288,-1.05383 -6.861256,-0.399455 -8.800705,1.553964 -1.522552,1.533515 -2.238363,3.697151 -2.112065,6.38402 0.11753,2.500338 0.934709,3.779611 3.786704,5.927992 2.11858,1.595905 3.491316,2.422271 9.239463,5.562047 8.218091,4.488917 11.564691,7.065873 14.805211,11.400353 2.85104,3.813493 4.04335,7.531205 4.04185,12.602752 -9.2e-4,4.004809 -0.64403,6.970266 -2.19129,10.108431 -2.47706,5.024003 -6.93675,8.530417 -12.90311,10.145027 -0.906801,0.24539 -2.398251,0.56671 -3.314341,0.71406 -2.011499,0.32352 -6.625932,0.47628 -8.354039,0.27656 z M 179.55116,65.012137 V 27.481681 l 12.93044,0.06454 c 12.30338,0.06136 13.03248,0.0828 15.03439,0.441396 5.74258,1.028669 9.61166,2.876296 12.63126,6.031883 2.10161,2.196252 3.4046,4.368104 4.34724,7.24597 1.74723,5.334345 1.7076,12.467663 -0.0979,17.620473 -1.57832,4.504424 -3.95825,7.230966 -8.13736,9.322485 l -1.77642,0.889041 0.51381,1.249878 c 0.28259,0.687433 3.44992,8.192868 7.0385,16.678742 l 6.52467,15.428871 -7.61749,0.0457 c -5.69594,0.0342 -7.64967,-0.007 -7.74506,-0.16069 -0.0701,-0.11352 -2.90686,-7.017907 -6.3038,-15.343081 l -6.17624,-15.13668 h -3.39457 -3.39458 v 15.341202 15.341219 h -7.18844 -7.18846 z m 24.48169,-5.160898 c 2.7723,-0.530431 5.09333,-2.066928 6.16274,-4.079676 0.95187,-1.791507 1.16944,-2.947744 1.16249,-6.178032 -0.006,-2.63289 -0.0469,-3.014952 -0.45874,-4.250642 -0.8359,-2.507998 -2.00783,-3.87178 -4.261,-4.958551 -1.87682,-0.90525 -3.60355,-1.135158 -8.52537,-1.135158 h -4.18491 v 10.432013 10.43202 h 4.36778 c 3.14717,0 4.75042,-0.07321 5.73701,-0.261974 z m 29.1687,5.171156 V 27.502203 h 19.63673 19.63675 v 6.311803 6.31181 h -12.44829 -12.4483 v 8.678742 8.678735 h 9.46772 9.46771 v 6.311808 6.31181 h -9.46771 -9.46772 v 9.906036 9.906035 h 12.97428 12.97427 v 6.31181 6.311808 h -20.16272 -20.16272 z m 48.74119,-0.002 V 27.498592 l 7.83527,0.04566 7.83528,0.04566 9.93121,22.135049 c 5.46214,12.174285 9.98382,22.187703 10.04817,22.252055 0.0643,0.06434 0.11699,-9.916154 0.11699,-22.178891 V 27.502243 h 6.57481 6.5748 v 37.522233 37.522234 l -6.87478,-0.0459 -6.87476,-0.0459 -7.06634,-15.604192 c -3.88649,-8.582311 -8.80981,-19.450453 -10.94071,-24.151436 -2.1309,-4.700982 -3.94441,-8.547242 -4.03002,-8.547242 -0.0899,0 -0.15564,10.222228 -0.15564,24.19527 v 24.19527 h -6.48714 -6.48714 z"
       id="path899" />
  </g>
</svg>
