<?xml version="1.0" encoding="UTF-8" standalone="no"?>
<svg
   xmlns:dc="http://purl.org/dc/elements/1.1/"
   xmlns:cc="http://creativecommons.org/ns#"
   xmlns:rdf="http://www.w3.org/1999/02/22-rdf-syntax-ns#"
   xmlns:svg="http://www.w3.org/2000/svg"
   xmlns="http://www.w3.org/2000/svg"
   width="397.98856mm"
   height="133.04857mm"
   viewBox="0 0 397.98856 133.04857"
   version="1.1"
   id="svg8">
  <defs
     id="defs2" />
  <metadata
     id="metadata5">
    <rdf:RDF>
      <cc:Work
         rdf:about="">
        <dc:format>image/svg+xml</dc:format>
        <dc:type
           rdf:resource="http://purl.org/dc/dcmitype/StillImage" />
        <dc:title></dc:title>
      </cc:Work>
    </rdf:RDF>
  </metadata>
  <g
     id="layer1">
    <path
       style="fill:#000000;stroke-width:0.264583"
       d="m 79.798775,127.16251 c 1.675045,-3.23784 4.526021,-8.73143 6.335501,-12.20798 l 3.289964,-6.321 -0.867151,-1.48421 c -1.757032,-3.00732 -3.25673,-7.354961 -4.161528,-12.064319 -0.541353,-2.81767 -0.563237,-3.76762 -0.664385,-28.8428 -0.07212,-17.879468 -0.01302,-26.832708 0.190421,-28.839578 2.173317,-21.44051 14.782907,-32.0091993 37.312793,-31.2736093 7.01521,0.2290398 11.69053,1.1987198 16.45675,3.4132098 1.28507,0.5970595 2.39949,1.0225595 2.47651,0.9455495 0.077,-0.077 1.36036,-2.4465795 2.8519,-5.2657093 l 2.71187,-5.12569001 8.12441,-0.07 c 4.46841,-0.0385 8.12439,-0.0343 8.12439,0.009 0,0.0435 -2.55593,4.97693001 -5.67985,10.96308931 l -5.67985,10.88392 1.04719,2.50621 c 1.2443,2.97797 2.17482,6.33515 2.82563,10.19447 0.43598,2.58541 0.47543,5.0585 0.47543,29.806828 v 26.9875 l -0.62032,3.43458 c -2.70639,14.984889 -10.87278,23.809669 -24.59754,26.580609 -9.33518,1.88471 -20.66559,1.06092 -27.24996,-1.98124 -1.09336,-0.50517 -2.01161,-0.88775 -2.04056,-0.85018 -0.029,0.0376 -1.706716,3.31036 -3.728376,7.27286 l -3.675743,7.20455 -8.151517,0.005 -8.151516,0.005 z M 124.33462,102.7286 c 3.70422,-0.96483 5.94623,-2.63218 7.33556,-5.455351 1.70823,-3.471188 1.73504,-3.861928 1.73504,-25.286408 0,-10.96367 -0.0992,-19.104018 -0.23103,-18.960578 -0.12707,0.13825 -5.61488,10.709548 -12.19513,23.491778 l -11.96408,23.240418 0.6196,0.664421 c 1.1888,1.27477 4.10779,2.39159 7.36648,2.81846 1.52109,0.19925 5.72979,-0.095 7.33356,-0.51274 z m -6.01352,-47.819407 12.72513,-24.81066 -0.85882,-1.08435 c -1.11745,-1.4109 -2.81702,-2.47285 -5.11656,-3.19702 -2.48863,-0.78371 -8.40536,-0.83498 -10.84792,-0.094 -4.92889,1.49526 -7.31654,4.07278 -8.4907,9.16591 -0.40779,1.76885 -0.46923,4.27887 -0.56578,23.11087 -0.0978,19.078468 -0.0524,22.201818 0.31746,21.831958 0.0616,-0.0616 5.83837,-11.27686 12.83719,-24.922718 z M 32.427516,122.21442 C 27.468195,121.64127 23.568551,120.4844 19.369812,118.34073 12.392555,114.77849 7.7963102,109.85587 3.8913312,101.76311 2.3586891,98.586829 0.24139511,92.834571 0.01324311,91.227121 c -0.08961,-0.63134 -0.01175,-0.65306 10.09615289,-2.8155 5.602552,-1.19859 10.381567,-2.18243 10.620033,-2.18632 0.295363,-0.005 0.489773,0.30922 0.60987,0.98513 0.704699,3.96608 2.914658,8.88176 5.284849,11.755248 1.68207,2.039251 4.628634,4.111931 6.906638,4.858291 2.177997,0.71358 7.038221,0.72939 9.12236,0.0297 1.857306,-0.62357 4.776538,-2.55666 5.772655,-3.8226 2.393548,-3.041891 3.437025,-7.682259 2.607315,-11.594779 -1.35441,-6.38675 -6.72607,-11.08614 -21.929875,-19.18532 -8.620353,-4.59213 -13.400498,-7.84895 -17.413242,-11.864038 -6.2751238,-6.2788 -8.7293539,-11.94211 -8.7176279,-20.11655 0.0128,-8.92514 2.7067681,-16.50347 7.7820939,-21.89163 3.383664,-3.59223 6.987575,-5.8093895 12.054931,-7.4163295 4.470429,-1.41764 7.362028,-1.7821298 14.022916,-1.7675798 5.073777,0.0111 6.327267,0.0963 8.486037,0.5767398 10.994237,2.44696 18.873081,8.6149195 23.549361,18.4356195 1.192033,2.50339 2.332504,5.60976 2.730778,7.43796 l 0.174009,0.79875 -9.466448,2.73676 c -5.206545,1.50522 -9.555639,2.75312 -9.664655,2.77313 -0.109014,0.02 -0.706829,-1.2205 -1.328476,-2.75668 -2.64175,-6.52813 -5.796354,-10.13531 -10.129258,-11.58244 -4.761568,-1.59031 -10.354156,-0.60281 -13.280932,2.34505 -2.297647,2.31419 -3.377859,5.57928 -3.187266,9.63397 0.177361,3.7732 1.410547,5.70372 5.714423,8.94579 3.197098,2.40834 5.268661,3.65539 13.943052,8.39355 12.401717,6.774118 17.451991,10.662938 22.342192,17.203998 4.302422,5.75485 6.101713,11.36516 6.099453,19.01851 -0.0019,6.04356 -0.971891,10.518659 -3.306823,15.254389 -3.738073,7.5816 -10.468081,12.87304 -19.471781,15.30961 -1.368422,0.37031 -3.619134,0.85522 -5.001582,1.07757 -3.035507,0.48822 -9.999036,0.71875 -12.60688,0.41735 z M 169.65314,64.242341 V 7.6060335 l 19.51302,0.0974 c 18.56673,0.0926 19.66699,0.12495 22.68802,0.6661 8.666,1.55234 14.50473,4.3405495 19.06154,9.1025695 3.17148,3.31431 5.13781,6.5918 6.56031,10.93472 2.63671,8.04993 2.5769,18.81465 -0.14773,26.59063 -2.3818,6.797518 -5.97329,10.912078 -12.27988,14.068338 l -2.68076,1.34163 0.77538,1.88616 c 0.42646,1.03739 5.20619,12.36366 10.62162,25.169488 l 9.84624,23.283331 -11.49538,0.069 c -8.5956,0.0516 -11.54394,-0.01 -11.68787,-0.2425 -0.10587,-0.1713 -4.38668,-10.59054 -9.51291,-23.153861 l -9.32042,-22.842398 h -5.12267 -5.12268 v 23.151038 23.151051 h -10.84791 -10.84792 z m 36.94473,-7.788188 c 4.18361,-0.80046 7.68621,-3.11915 9.30004,-6.15654 1.43645,-2.70352 1.76477,-4.44837 1.75428,-9.32312 -0.009,-3.97323 -0.0708,-4.54979 -0.69228,-6.41454 -1.26143,-3.78476 -3.02996,-5.84281 -6.43016,-7.48283 -2.83227,-1.36609 -5.43803,-1.71304 -12.86544,-1.71304 h -6.31534 v 15.7427 15.74271 h 6.59131 c 4.74932,0 7.16875,-0.11048 8.65759,-0.39534 z m 44.01777,7.803668 V 7.6370035 h 29.63333 29.63333 v 9.5249895 9.525 h -18.78541 -18.78542 v 13.09688 13.09687 h 14.2875 14.2875 v 9.524998 9.525 h -14.2875 -14.2875 v 14.94896 14.948959 h 19.57917 19.57916 v 9.525 9.525 h -30.42708 -30.42708 z m 73.55416,-0.003 V 7.6315535 l 11.82402,0.0689 11.82404,0.0689 14.98693,33.4034695 c 8.2428,18.37192 15.06635,33.482928 15.16346,33.580038 0.0971,0.0971 0.17655,-14.964228 0.17655,-33.469628 V 7.6370635 h 9.92188 9.92187 V 64.260961 120.88486 l -10.37455,-0.0692 -10.37455,-0.0692 -10.66363,-23.547911 C 360.7108,84.247191 353.28114,67.846341 350.06545,60.752201 c -3.2157,-7.094138 -5.95241,-12.898438 -6.08161,-12.898438 -0.13565,0 -0.23487,15.426118 -0.23487,36.512498 v 36.512499 h -9.78958 -9.78959 z"
       id="path899" />
  </g>
</svg>
